solid Model
   facet normal 0.0000000e+000 0.0000000e+000 1.0000000e+000
      outer loop 
         vertex 7.1942446e+001 1.0000000e+004 2.0000000e+003
         vertex 0.0000000e+000 1.0000000e+004 2.0000000e+003
         vertex 0.0000000e+000 9.9280576e+003 2.0000000e+003
      endloop 
   endfacet
   facet normal 0.0000000e+000 0.0000000e+000 -1.0000000e+000
      outer loop 
         vertex 0.0000000e+000 1.0000000e+004 0.0000000e+000
         vertex 7.1942446e+001 1.0000000e+004 0.0000000e+000
         vertex 0.0000000e+000 9.9280576e+003 0.0000000e+000
      endloop 
   endfacet
   facet normal -0.0000000e+000 0.0000000e+000 1.0000000e+000
      outer loop 
         vertex 7.1942446e+001 1.0000000e+004 2.0000000e+003
         vertex 0.0000000e+000 9.9280576e+003 2.0000000e+003
         vertex 7.1942446e+001 9.9280576e+003 2.0000000e+003
      endloop 
   endfacet
   facet normal 0.0000000e+000 0.0000000e+000 -1.0000000e+000
      outer loop 
         vertex 0.0000000e+000 9.9280576e+003 0.0000000e+000
         vertex 7.1942446e+001 1.0000000e+004 0.0000000e+000
         vertex 7.1942446e+001 9.9280576e+003 0.0000000e+000
      endloop 
   endfacet
   facet normal 0.0000000e+000 0.0000000e+000 1.0000000e+000
      outer loop 
         vertex 7.1942446e+001 9.9280576e+003 2.0000000e+003
         vertex 0.0000000e+000 9.9280576e+003 2.0000000e+003
         vertex 0.0000000e+000 9.8561151e+003 2.0000000e+003
      endloop 
   endfacet
   facet normal 0.0000000e+000 0.0000000e+000 -1.0000000e+000
      outer loop 
         vertex 0.0000000e+000 9.9280576e+003 0.0000000e+000
         vertex 7.1942446e+001 9.9280576e+003 0.0000000e+000
         vertex 0.0000000e+000 9.8561151e+003 0.0000000e+000
      endloop 
   endfacet
   facet normal -0.0000000e+000 0.0000000e+000 1.0000000e+000
      outer loop 
         vertex 7.1942446e+001 9.9280576e+003 2.0000000e+003
         vertex 0.0000000e+000 9.8561151e+003 2.0000000e+003
         vertex 7.1942446e+001 9.8561151e+003 2.0000000e+003
      endloop 
   endfacet
   facet normal 0.0000000e+000 0.0000000e+000 -1.0000000e+000
      outer loop 
         vertex 0.0000000e+000 9.8561151e+003 0.0000000e+000
         vertex 7.1942446e+001 9.9280576e+003 0.0000000e+000
         vertex 7.1942446e+001 9.8561151e+003 0.0000000e+000
      endloop 
   endfacet
   facet normal 0.0000000e+000 0.0000000e+000 1.0000000e+000
      outer loop 
         vertex 7.1942446e+001 9.8561151e+003 2.0000000e+003
         vertex 0.0000000e+000 9.8561151e+003 2.0000000e+003
         vertex 0.0000000e+000 9.7841727e+003 2.0000000e+003
      endloop 
   endfacet
   facet normal 0.0000000e+000 0.0000000e+000 -1.0000000e+000
      outer loop 
         vertex 0.0000000e+000 9.8561151e+003 0.0000000e+000
         vertex 7.1942446e+001 9.8561151e+003 0.0000000e+000
         vertex 0.0000000e+000 9.7841727e+003 0.0000000e+000
      endloop 
   endfacet
   facet normal -0.0000000e+000 0.0000000e+000 1.0000000e+000
      outer loop 
         vertex 7.1942446e+001 9.8561151e+003 2.0000000e+003
         vertex 0.0000000e+000 9.7841727e+003 2.0000000e+003
         vertex 7.1942446e+001 9.7841727e+003 2.0000000e+003
      endloop 
   endfacet
   facet normal 0.0000000e+000 0.0000000e+000 -1.0000000e+000
      outer loop 
         vertex 0.0000000e+000 9.7841727e+003 0.0000000e+000
         vertex 7.1942446e+001 9.8561151e+003 0.0000000e+000
         vertex 7.1942446e+001 9.7841727e+003 0.0000000e+000
      endloop 
   endfacet
   facet normal 0.0000000e+000 0.0000000e+000 1.0000000e+000
      outer loop 
         vertex 7.1942446e+001 9.7841727e+003 2.0000000e+003
         vertex 0.0000000e+000 9.7841727e+003 2.0000000e+003
         vertex 0.0000000e+000 9.7122302e+003 2.0000000e+003
      endloop 
   endfacet
   facet normal 0.0000000e+000 0.0000000e+000 -1.0000000e+000
      outer loop 
         vertex 0.0000000e+000 9.7841727e+003 0.0000000e+000
         vertex 7.1942446e+001 9.7841727e+003 0.0000000e+000
         vertex 0.0000000e+000 9.7122302e+003 0.0000000e+000
      endloop 
   endfacet
   facet normal -0.0000000e+000 0.0000000e+000 1.0000000e+000
      outer loop 
         vertex 7.1942446e+001 9.7841727e+003 2.0000000e+003
         vertex 0.0000000e+000 9.7122302e+003 2.0000000e+003
         vertex 7.1942446e+001 9.7122302e+003 2.0000000e+003
      endloop 
   endfacet
   facet normal 0.0000000e+000 0.0000000e+000 -1.0000000e+000
      outer loop 
         vertex 0.0000000e+000 9.7122302e+003 0.0000000e+000
         vertex 7.1942446e+001 9.7841727e+003 0.0000000e+000
         vertex 7.1942446e+001 9.7122302e+003 0.0000000e+000
      endloop 
   endfacet
   facet normal 0.0000000e+000 0.0000000e+000 1.0000000e+000
      outer loop 
         vertex 7.1942446e+001 9.7122302e+003 2.0000000e+003
         vertex 0.0000000e+000 9.7122302e+003 2.0000000e+003
         vertex 0.0000000e+000 9.6402878e+003 2.0000000e+003
      endloop 
   endfacet
   facet normal 0.0000000e+000 0.0000000e+000 -1.0000000e+000
      outer loop 
         vertex 0.0000000e+000 9.7122302e+003 0.0000000e+000
         vertex 7.1942446e+001 9.7122302e+003 0.0000000e+000
         vertex 0.0000000e+000 9.6402878e+003 0.0000000e+000
      endloop 
   endfacet
   facet normal -0.0000000e+000 0.0000000e+000 1.0000000e+000
      outer loop 
         vertex 7.1942446e+001 9.7122302e+003 2.0000000e+003
         vertex 0.0000000e+000 9.6402878e+003 2.0000000e+003
         vertex 7.1942446e+001 9.6402878e+003 2.0000000e+003
      endloop 
   endfacet
   facet normal 0.0000000e+000 0.0000000e+000 -1.0000000e+000
      outer loop 
         vertex 0.0000000e+000 9.6402878e+003 0.0000000e+000
         vertex 7.1942446e+001 9.7122302e+003 0.0000000e+000
         vertex 7.1942446e+001 9.6402878e+003 0.0000000e+000
      endloop 
   endfacet
   facet normal 0.0000000e+000 0.0000000e+000 1.0000000e+000
      outer loop 
         vertex 7.1942446e+001 9.6402878e+003 2.0000000e+003
         vertex 0.0000000e+000 9.6402878e+003 2.0000000e+003
         vertex 0.0000000e+000 9.5683453e+003 2.0000000e+003
      endloop 
   endfacet
   facet normal 0.0000000e+000 0.0000000e+000 -1.0000000e+000
      outer loop 
         vertex 0.0000000e+000 9.6402878e+003 0.0000000e+000
         vertex 7.1942446e+001 9.6402878e+003 0.0000000e+000
         vertex 0.0000000e+000 9.5683453e+003 0.0000000e+000
      endloop 
   endfacet
   facet normal -0.0000000e+000 0.0000000e+000 1.0000000e+000
      outer loop 
         vertex 7.1942446e+001 9.6402878e+003 2.0000000e+003
         vertex 0.0000000e+000 9.5683453e+003 2.0000000e+003
         vertex 7.1942446e+001 9.5683453e+003 2.0000000e+003
      endloop 
   endfacet
   facet normal 0.0000000e+000 0.0000000e+000 -1.0000000e+000
      outer loop 
         vertex 0.0000000e+000 9.5683453e+003 0.0000000e+000
         vertex 7.1942446e+001 9.6402878e+003 0.0000000e+000
         vertex 7.1942446e+001 9.5683453e+003 0.0000000e+000
      endloop 
   endfacet
   facet normal 0.0000000e+000 0.0000000e+000 1.0000000e+000
      outer loop 
         vertex 7.1942446e+001 9.5683453e+003 2.0000000e+003
         vertex 0.0000000e+000 9.5683453e+003 2.0000000e+003
         vertex 0.0000000e+000 9.4964029e+003 2.0000000e+003
      endloop 
   endfacet
   facet normal 0.0000000e+000 0.0000000e+000 -1.0000000e+000
      outer loop 
         vertex 0.0000000e+000 9.5683453e+003 0.0000000e+000
         vertex 7.1942446e+001 9.5683453e+003 0.0000000e+000
         vertex 0.0000000e+000 9.4964029e+003 0.0000000e+000
      endloop 
   endfacet
   facet normal -0.0000000e+000 0.0000000e+000 1.0000000e+000
      outer loop 
         vertex 7.1942446e+001 9.5683453e+003 2.0000000e+003
         vertex 0.0000000e+000 9.4964029e+003 2.0000000e+003
         vertex 7.1942446e+001 9.4964029e+003 2.0000000e+003
      endloop 
   endfacet
   facet normal 0.0000000e+000 0.0000000e+000 -1.0000000e+000
      outer loop 
         vertex 0.0000000e+000 9.4964029e+003 0.0000000e+000
         vertex 7.1942446e+001 9.5683453e+003 0.0000000e+000
         vertex 7.1942446e+001 9.4964029e+003 0.0000000e+000
      endloop 
   endfacet
   facet normal 0.0000000e+000 0.0000000e+000 1.0000000e+000
      outer loop 
         vertex 7.1942446e+001 9.4964029e+003 2.0000000e+003
         vertex 0.0000000e+000 9.4964029e+003 2.0000000e+003
         vertex 0.0000000e+000 9.4244604e+003 2.0000000e+003
      endloop 
   endfacet
   facet normal 0.0000000e+000 0.0000000e+000 -1.0000000e+000
      outer loop 
         vertex 0.0000000e+000 9.4964029e+003 0.0000000e+000
         vertex 7.1942446e+001 9.4964029e+003 0.0000000e+000
         vertex 0.0000000e+000 9.4244604e+003 0.0000000e+000
      endloop 
   endfacet
   facet normal -0.0000000e+000 0.0000000e+000 1.0000000e+000
      outer loop 
         vertex 7.1942446e+001 9.4964029e+003 2.0000000e+003
         vertex 0.0000000e+000 9.4244604e+003 2.0000000e+003
         vertex 7.1942446e+001 9.4244604e+003 2.0000000e+003
      endloop 
   endfacet
   facet normal 0.0000000e+000 0.0000000e+000 -1.0000000e+000
      outer loop 
         vertex 0.0000000e+000 9.4244604e+003 0.0000000e+000
         vertex 7.1942446e+001 9.4964029e+003 0.0000000e+000
         vertex 7.1942446e+001 9.4244604e+003 0.0000000e+000
      endloop 
   endfacet
   facet normal 0.0000000e+000 0.0000000e+000 1.0000000e+000
      outer loop 
         vertex 7.1942446e+001 9.4244604e+003 2.0000000e+003
         vertex 0.0000000e+000 9.4244604e+003 2.0000000e+003
         vertex 0.0000000e+000 9.3525180e+003 2.0000000e+003
      endloop 
   endfacet
   facet normal 0.0000000e+000 0.0000000e+000 -1.0000000e+000
      outer loop 
         vertex 0.0000000e+000 9.4244604e+003 0.0000000e+000
         vertex 7.1942446e+001 9.4244604e+003 0.0000000e+000
         vertex 0.0000000e+000 9.3525180e+003 0.0000000e+000
      endloop 
   endfacet
   facet normal -0.0000000e+000 0.0000000e+000 1.0000000e+000
      outer loop 
         vertex 7.1942446e+001 9.4244604e+003 2.0000000e+003
         vertex 0.0000000e+000 9.3525180e+003 2.0000000e+003
         vertex 7.1942446e+001 9.3525180e+003 2.0000000e+003
      endloop 
   endfacet
   facet normal 0.0000000e+000 0.0000000e+000 -1.0000000e+000
      outer loop 
         vertex 0.0000000e+000 9.3525180e+003 0.0000000e+000
         vertex 7.1942446e+001 9.4244604e+003 0.0000000e+000
         vertex 7.1942446e+001 9.3525180e+003 0.0000000e+000
      endloop 
   endfacet
   facet normal 0.0000000e+000 0.0000000e+000 1.0000000e+000
      outer loop 
         vertex 7.1942446e+001 9.3525180e+003 2.0000000e+003
         vertex 0.0000000e+000 9.3525180e+003 2.0000000e+003
         vertex 0.0000000e+000 9.2805755e+003 2.0000000e+003
      endloop 
   endfacet
   facet normal 0.0000000e+000 0.0000000e+000 -1.0000000e+000
      outer loop 
         vertex 0.0000000e+000 9.3525180e+003 0.0000000e+000
         vertex 7.1942446e+001 9.3525180e+003 0.0000000e+000
         vertex 0.0000000e+000 9.2805755e+003 0.0000000e+000
      endloop 
   endfacet
   facet normal -0.0000000e+000 0.0000000e+000 1.0000000e+000
      outer loop 
         vertex 7.1942446e+001 9.3525180e+003 2.0000000e+003
         vertex 0.0000000e+000 9.2805755e+003 2.0000000e+003
         vertex 7.1942446e+001 9.2805755e+003 2.0000000e+003
      endloop 
   endfacet
   facet normal 0.0000000e+000 0.0000000e+000 -1.0000000e+000
      outer loop 
         vertex 0.0000000e+000 9.2805755e+003 0.0000000e+000
         vertex 7.1942446e+001 9.3525180e+003 0.0000000e+000
         vertex 7.1942446e+001 9.2805755e+003 0.0000000e+000
      endloop 
   endfacet
   facet normal 0.0000000e+000 0.0000000e+000 1.0000000e+000
      outer loop 
         vertex 7.1942446e+001 9.2805755e+003 2.0000000e+003
         vertex 0.0000000e+000 9.2805755e+003 2.0000000e+003
         vertex 0.0000000e+000 9.2086331e+003 2.0000000e+003
      endloop 
   endfacet
   facet normal 0.0000000e+000 0.0000000e+000 -1.0000000e+000
      outer loop 
         vertex 0.0000000e+000 9.2805755e+003 0.0000000e+000
         vertex 7.1942446e+001 9.2805755e+003 0.0000000e+000
         vertex 0.0000000e+000 9.2086331e+003 0.0000000e+000
      endloop 
   endfacet
   facet normal -0.0000000e+000 0.0000000e+000 1.0000000e+000
      outer loop 
         vertex 7.1942446e+001 9.2805755e+003 2.0000000e+003
         vertex 0.0000000e+000 9.2086331e+003 2.0000000e+003
         vertex 7.1942446e+001 9.2086331e+003 2.0000000e+003
      endloop 
   endfacet
   facet normal 0.0000000e+000 0.0000000e+000 -1.0000000e+000
      outer loop 
         vertex 0.0000000e+000 9.2086331e+003 0.0000000e+000
         vertex 7.1942446e+001 9.2805755e+003 0.0000000e+000
         vertex 7.1942446e+001 9.2086331e+003 0.0000000e+000
      endloop 
   endfacet
   facet normal 0.0000000e+000 0.0000000e+000 1.0000000e+000
      outer loop 
         vertex 7.1942446e+001 9.2086331e+003 2.0000000e+003
         vertex 0.0000000e+000 9.2086331e+003 2.0000000e+003
         vertex 0.0000000e+000 9.1366906e+003 2.0000000e+003
      endloop 
   endfacet
   facet normal 0.0000000e+000 0.0000000e+000 -1.0000000e+000
      outer loop 
         vertex 0.0000000e+000 9.2086331e+003 0.0000000e+000
         vertex 7.1942446e+001 9.2086331e+003 0.0000000e+000
         vertex 0.0000000e+000 9.1366906e+003 0.0000000e+000
      endloop 
   endfacet
   facet normal -0.0000000e+000 0.0000000e+000 1.0000000e+000
      outer loop 
         vertex 7.1942446e+001 9.2086331e+003 2.0000000e+003
         vertex 0.0000000e+000 9.1366906e+003 2.0000000e+003
         vertex 7.1942446e+001 9.1366906e+003 2.0000000e+003
      endloop 
   endfacet
   facet normal 0.0000000e+000 0.0000000e+000 -1.0000000e+000
      outer loop 
         vertex 0.0000000e+000 9.1366906e+003 0.0000000e+000
         vertex 7.1942446e+001 9.2086331e+003 0.0000000e+000
         vertex 7.1942446e+001 9.1366906e+003 0.0000000e+000
      endloop 
   endfacet
   facet normal 0.0000000e+000 0.0000000e+000 1.0000000e+000
      outer loop 
         vertex 7.1942446e+001 9.1366906e+003 2.0000000e+003
         vertex 0.0000000e+000 9.1366906e+003 2.0000000e+003
         vertex 0.0000000e+000 9.0647482e+003 2.0000000e+003
      endloop 
   endfacet
   facet normal 0.0000000e+000 0.0000000e+000 -1.0000000e+000
      outer loop 
         vertex 0.0000000e+000 9.1366906e+003 0.0000000e+000
         vertex 7.1942446e+001 9.1366906e+003 0.0000000e+000
         vertex 0.0000000e+000 9.0647482e+003 0.0000000e+000
      endloop 
   endfacet
   facet normal -0.0000000e+000 0.0000000e+000 1.0000000e+000
      outer loop 
         vertex 7.1942446e+001 9.1366906e+003 2.0000000e+003
         vertex 0.0000000e+000 9.0647482e+003 2.0000000e+003
         vertex 7.1942446e+001 9.0647482e+003 2.0000000e+003
      endloop 
   endfacet
   facet normal 0.0000000e+000 0.0000000e+000 -1.0000000e+000
      outer loop 
         vertex 0.0000000e+000 9.0647482e+003 0.0000000e+000
         vertex 7.1942446e+001 9.1366906e+003 0.0000000e+000
         vertex 7.1942446e+001 9.0647482e+003 0.0000000e+000
      endloop 
   endfacet
   facet normal 0.0000000e+000 0.0000000e+000 1.0000000e+000
      outer loop 
         vertex 7.1942446e+001 9.0647482e+003 2.0000000e+003
         vertex 0.0000000e+000 9.0647482e+003 2.0000000e+003
         vertex 0.0000000e+000 8.9928058e+003 2.0000000e+003
      endloop 
   endfacet
   facet normal 0.0000000e+000 0.0000000e+000 -1.0000000e+000
      outer loop 
         vertex 0.0000000e+000 9.0647482e+003 0.0000000e+000
         vertex 7.1942446e+001 9.0647482e+003 0.0000000e+000
         vertex 0.0000000e+000 8.9928058e+003 0.0000000e+000
      endloop 
   endfacet
   facet normal -0.0000000e+000 0.0000000e+000 1.0000000e+000
      outer loop 
         vertex 7.1942446e+001 9.0647482e+003 2.0000000e+003
         vertex 0.0000000e+000 8.9928058e+003 2.0000000e+003
         vertex 7.1942446e+001 8.9928058e+003 2.0000000e+003
      endloop 
   endfacet
   facet normal 0.0000000e+000 0.0000000e+000 -1.0000000e+000
      outer loop 
         vertex 0.0000000e+000 8.9928058e+003 0.0000000e+000
         vertex 7.1942446e+001 9.0647482e+003 0.0000000e+000
         vertex 7.1942446e+001 8.9928058e+003 0.0000000e+000
      endloop 
   endfacet
   facet normal 0.0000000e+000 0.0000000e+000 1.0000000e+000
      outer loop 
         vertex 7.1942446e+001 8.9928058e+003 2.0000000e+003
      